<svg xmlns="http://www.w3.org/2000/svg" width="1920" height="1080" viewBox="0 0 1920 1080" role="img" aria-labelledby="title desc">
<title id="title">Scientific reasoning benchmark: cost by model and reasoning level</title>
<desc id="desc">A 16:9 logarithmic dot plot showing mean estimated cost for every model and reasoning level across 6 repeated runs of six scientific-reasoning tasks.</desc>
<style>
  .title { fill: #10283f; font-family: Arial, sans-serif; font-size: 27px; font-weight: 700; }
  .subtitle { fill: #526574; font-family: Arial, sans-serif; font-size: 14px; font-weight: 400; }
  .section { fill: #10283f; font-family: Arial, sans-serif; font-size: 14px; font-weight: 600; }
  .label { fill: #334b5d; font-family: Arial, sans-serif; font-size: 13px; font-weight: 400; }
  .rank-label { fill: #10283f; font-family: Arial, sans-serif; font-size: 14px; font-weight: 700; }
  .small { fill: #526574; font-family: Arial, sans-serif; font-size: 11px; font-weight: 400; }
  .value { fill: #10283f; font-family: Arial, sans-serif; font-size: 12px; font-weight: 600; }
  .rank-value { fill: #10283f; font-family: Arial, sans-serif; font-size: 13px; font-weight: 700; }
  .axis { stroke: #9aaab5; stroke-width: 1; }
  .grid { stroke: #d6dee2; stroke-width: 1; }
</style>
<rect width="1920" height="1080" fill="#ffffff"/>
<style>.title { font-size: 42px; } .subtitle { font-size: 20px; } .section { font-size: 22px; } .label { font-size: 20px; } .small { font-size: 17px; } .value { font-size: 19px; }</style>
<text x="98" y="82" class="title">Scientific reasoning benchmark: cost by model and reasoning level</text>
<text x="98" y="120" class="subtitle">Mean estimated cost for six scientific-reasoning tasks across 6 complete runs per configuration.</text>
<text x="390" y="180" class="section">Mean estimated cost for six scientific tasks (log scale)</text>
<text x="1704" y="180" class="section">Max ÷ Low cost</text>
<rect x="82" y="218" width="1740" height="72" rx="8" fill="#f4f7f9"/>
<rect x="82" y="400" width="1740" height="72" rx="8" fill="#f4f7f9"/>
<rect x="82" y="582" width="1740" height="72" rx="8" fill="#f4f7f9"/>
<rect x="82" y="764" width="1740" height="72" rx="8" fill="#f4f7f9"/>
<line x1="390.0" y1="202" x2="390.0" y2="943" class="grid"/>
<text x="390.0" y="979" text-anchor="middle" class="small">$0.001</text>
<line x1="535.0" y1="202" x2="535.0" y2="943" class="grid"/>
<text x="535.0" y="979" text-anchor="middle" class="small">$0.002</text>
<line x1="726.8" y1="202" x2="726.8" y2="943" class="grid"/>
<text x="726.8" y="979" text-anchor="middle" class="small">$0.005</text>
<line x1="871.8" y1="202" x2="871.8" y2="943" class="grid"/>
<text x="871.8" y="979" text-anchor="middle" class="small">$0.01</text>
<line x1="1016.9" y1="202" x2="1016.9" y2="943" class="grid"/>
<text x="1016.9" y="979" text-anchor="middle" class="small">$0.02</text>
<line x1="1208.6" y1="202" x2="1208.6" y2="943" class="grid"/>
<text x="1208.6" y="979" text-anchor="middle" class="small">$0.05</text>
<line x1="1353.7" y1="202" x2="1353.7" y2="943" class="grid"/>
<text x="1353.7" y="979" text-anchor="middle" class="small">$0.10</text>
<line x1="1498.7" y1="202" x2="1498.7" y2="943" class="grid"/>
<text x="1498.7" y="979" text-anchor="middle" class="small">$0.20</text>
<text x="98" y="252" class="label">Claude Fable 5</text>
<text x="98" y="276" class="small">5 levels · 6 scientific tasks · 6 runs</text>
<circle cx="1371.4" cy="258.0" r="9.7" fill="#176a5b"/>
<rect x="1368.1" y="248.3" width="19.4" height="19.4" fill="#2f6f9f"/>
<path d="M 1456.9 246.7 L 1468.3 258.0 L 1456.9 269.3 L 1445.6 258.0 Z" fill="#c8751b"/>
<path d="M 1488.3 246.7 L 1499.6 267.7 L 1476.9 267.7 Z" fill="#76528e"/>
<path d="M 1552.0 245.0 L 1564.3 253.9 L 1559.6 268.5 L 1544.4 268.5 L 1539.7 253.9 Z" fill="#b34545"/>
<text x="1704" y="264" class="value">2.37×</text>
<text x="98" y="343" class="label">Claude Opus 5</text>
<text x="98" y="367" class="small">5 levels · 6 scientific tasks · 6 runs</text>
<circle cx="1217.6" cy="349.0" r="9.7" fill="#176a5b"/>
<rect x="1267.7" y="339.3" width="19.4" height="19.4" fill="#2f6f9f"/>
<path d="M 1307.8 337.7 L 1319.1 349.0 L 1307.8 360.3 L 1296.5 349.0 Z" fill="#c8751b"/>
<path d="M 1342.3 337.7 L 1353.7 358.7 L 1331.0 358.7 Z" fill="#76528e"/>
<path d="M 1364.7 336.0 L 1377.0 344.9 L 1372.3 359.5 L 1357.0 359.5 L 1352.3 344.9 Z" fill="#b34545"/>
<text x="1704" y="355" class="value">2.02×</text>
<text x="98" y="434" class="label">Claude Sonnet 5</text>
<text x="98" y="458" class="small">5 levels · 6 scientific tasks · 6 runs</text>
<circle cx="1216.8" cy="440.0" r="9.7" fill="#176a5b"/>
<rect x="1310.8" y="430.3" width="19.4" height="19.4" fill="#2f6f9f"/>
<path d="M 1383.0 428.7 L 1394.3 440.0 L 1383.0 451.3 L 1371.6 440.0 Z" fill="#c8751b"/>
<path d="M 1454.9 428.7 L 1466.2 449.7 L 1443.5 449.7 Z" fill="#76528e"/>
<path d="M 1590.8 427.0 L 1603.1 435.9 L 1598.4 450.5 L 1583.1 450.5 L 1578.4 435.9 Z" fill="#b34545"/>
<text x="1704" y="446" class="value">5.97×</text>
<text x="98" y="525" class="label">Claude Haiku 4.5</text>
<text x="98" y="549" class="small">3 levels · 6 scientific tasks · 6 runs</text>
<circle cx="1169.1" cy="531.0" r="9.7" fill="#176a5b"/>
<rect x="1185.1" y="521.3" width="19.4" height="19.4" fill="#2f6f9f"/>
<path d="M 1273.1 519.7 L 1284.5 531.0 L 1273.1 542.3 L 1261.8 531.0 Z" fill="#c8751b"/>
<text x="1704" y="537" class="value">1.64×</text>
<text x="98" y="616" class="label">GPT-5.6 Sol</text>
<text x="98" y="640" class="small">5 levels · 6 scientific tasks · 6 runs</text>
<circle cx="1195.3" cy="622.0" r="9.7" fill="#176a5b"/>
<rect x="1188.7" y="612.3" width="19.4" height="19.4" fill="#2f6f9f"/>
<path d="M 1214.8 610.7 L 1226.1 622.0 L 1214.8 633.3 L 1203.5 622.0 Z" fill="#c8751b"/>
<path d="M 1213.0 610.7 L 1224.3 631.7 L 1201.6 631.7 Z" fill="#76528e"/>
<path d="M 1255.8 609.0 L 1268.2 618.0 L 1263.5 632.5 L 1248.2 632.5 L 1243.5 618.0 Z" fill="#b34545"/>
<text x="1704" y="628" class="value">1.34×</text>
<text x="98" y="707" class="label">GPT-5.6 Terra</text>
<text x="98" y="731" class="small">5 levels · 6 scientific tasks · 6 runs</text>
<circle cx="977.9" cy="713.0" r="9.7" fill="#176a5b"/>
<rect x="998.6" y="703.3" width="19.4" height="19.4" fill="#2f6f9f"/>
<path d="M 1008.4 701.7 L 1019.8 713.0 L 1008.4 724.3 L 997.1 713.0 Z" fill="#c8751b"/>
<path d="M 1046.7 701.7 L 1058.0 722.7 L 1035.3 722.7 Z" fill="#76528e"/>
<path d="M 1091.8 700.0 L 1104.1 709.0 L 1099.4 723.5 L 1084.2 723.5 L 1079.5 709.0 Z" fill="#b34545"/>
<text x="1704" y="719" class="value">1.72×</text>
<text x="98" y="798" class="label">GPT-5.6 Luna</text>
<text x="98" y="822" class="small">5 levels · 6 scientific tasks · 6 runs</text>
<circle cx="572.9" cy="804.0" r="9.7" fill="#176a5b"/>
<rect x="596.5" y="794.3" width="19.4" height="19.4" fill="#2f6f9f"/>
<path d="M 640.3 792.7 L 651.6 804.0 L 640.3 815.3 L 628.9 804.0 Z" fill="#c8751b"/>
<path d="M 651.9 792.7 L 663.2 813.7 L 640.5 813.7 Z" fill="#76528e"/>
<path d="M 693.4 791.0 L 705.7 800.0 L 701.0 814.5 L 685.7 814.5 L 681.0 800.0 Z" fill="#b34545"/>
<text x="1704" y="810" class="value">1.78×</text>
<text x="98" y="889" class="label">GPT-5.5</text>
<text x="98" y="913" class="small">4 levels · 6 scientific tasks · 6 runs</text>
<circle cx="1255.0" cy="895.0" r="9.7" fill="#176a5b"/>
<rect x="1298.1" y="885.3" width="19.4" height="19.4" fill="#2f6f9f"/>
<path d="M 1349.6 883.7 L 1361.0 895.0 L 1349.6 906.3 L 1338.3 895.0 Z" fill="#c8751b"/>
<path d="M 1373.1 883.7 L 1384.4 904.7 L 1361.7 904.7 Z" fill="#76528e"/>
<text x="1704" y="901" class="value">1.76×</text>
<circle cx="390.0" cy="1050.0" r="8.3" fill="#176a5b"/>
<text x="412" y="1056" class="small">Low</text>
<rect x="567.7" y="1041.7" width="16.6" height="16.6" fill="#2f6f9f"/>
<text x="598" y="1056" class="small">Medium</text>
<path d="M 762.0 1040.3 L 771.7 1050.0 L 762.0 1059.7 L 752.3 1050.0 Z" fill="#c8751b"/>
<text x="784" y="1056" class="small">High</text>
<path d="M 948.0 1040.3 L 957.7 1058.3 L 938.3 1058.3 Z" fill="#76528e"/>
<text x="970" y="1056" class="small">X-high</text>
<path d="M 1134.0 1039.0 L 1144.5 1046.5 L 1140.5 1059.0 L 1127.5 1059.0 L 1123.5 1046.5 Z" fill="#b34545"/>
<text x="1156" y="1056" class="small">Max</text>
</svg>
